<svg xmlns="http://www.w3.org/2000/svg" xmlns:xlink="http://www.w3.org/1999/xlink" width="256" zoomAndPan="magnify" viewBox="0 0 192 191.999996" height="256" preserveAspectRatio="xMidYMid meet" version="1.2"><defs><clipPath id="faa8b10a04"><path d="M 0 48.199219 L 192 48.199219 L 192 143 L 0 143 Z M 0 48.199219 "/></clipPath></defs><g id="c91930deb0"><g clip-rule="nonzero" clip-path="url(#faa8b10a04)"><path style=" stroke:none;fill-rule:nonzero;fill:#ffffff;fill-opacity:1;" d="M 163.136719 85.992188 C 165.324219 87.941406 167.242188 89.90625 168.851562 91.867188 C 170.605469 94.007812 171.996094 96.15625 172.941406 98.265625 C 173.980469 100.59375 174.488281 102.882812 174.355469 105.078125 C 174.214844 107.503906 173.292969 109.8125 171.460938 111.914062 C 169.429688 114.238281 166.371094 116.214844 162.25 117.742188 C 157.738281 119.414062 152.046875 120.511719 145.246094 120.9375 C 137.953125 121.394531 129.597656 121.058594 120.410156 119.871094 C 110.863281 118.636719 100.773438 116.523438 90.539062 113.566406 C 80.304688 110.613281 70.644531 107.019531 61.914062 102.976562 C 53.511719 99.085938 46.261719 94.910156 40.335938 90.640625 C 34.808594 86.652344 30.582031 82.6875 27.65625 78.871094 C 24.984375 75.378906 23.449219 72.078125 22.972656 69.027344 C 22.539062 66.273438 22.992188 63.828125 24.164062 61.699219 C 25.226562 59.773438 26.875 58.105469 28.992188 56.695312 C 30.917969 55.410156 33.238281 54.335938 35.867188 53.457031 C 38.269531 52.65625 40.941406 52.015625 43.828125 51.535156 C 46.488281 51.089844 49.273438 50.789062 52.132812 50.617188 C 54.796875 50.453125 57.550781 50.398438 60.355469 50.445312 C 63 50.484375 65.710938 50.613281 68.46875 50.824219 C 71.09375 51.023438 73.78125 51.296875 76.511719 51.644531 C 79.136719 51.972656 81.746094 52.363281 84.335938 52.804688 C 86.847656 53.234375 89.359375 53.714844 91.859375 54.242188 C 94.3125 54.761719 96.773438 55.332031 99.238281 55.949219 C 101.675781 56.558594 104.136719 57.222656 106.609375 57.933594 C 109.082031 58.648438 111.519531 59.402344 113.90625 60.183594 C 116.320312 60.976562 118.707031 61.808594 121.058594 62.675781 C 123.453125 63.5625 125.835938 64.492188 128.191406 65.472656 C 130.617188 66.476562 133.035156 67.539062 135.429688 68.660156 C 137.925781 69.824219 140.34375 71.023438 142.667969 72.253906 C 145.113281 73.546875 147.480469 74.882812 149.738281 76.257812 C 152.136719 77.71875 154.433594 79.230469 156.601562 80.789062 C 158.929688 82.460938 161.125 84.199219 163.136719 85.992188 Z M 35.519531 49.136719 C 31.808594 49.570312 28.265625 50.183594 24.957031 50.988281 C 21.285156 51.878906 17.882812 53.011719 14.851562 54.402344 C 11.453125 55.960938 8.507812 57.851562 6.175781 60.097656 C 3.542969 62.636719 1.695312 65.632812 0.898438 69.097656 C -0.0117188 73.046875 0.46875 77.445312 2.554688 82.214844 C 4.90625 87.59375 9.242188 93.3125 15.6875 99.175781 C 22.792969 105.636719 32.1875 112.023438 43.679688 117.980469 C 55.832031 124.28125 69.695312 129.773438 84.613281 134.082031 C 99.535156 138.390625 114.195312 141.136719 127.835938 142.285156 C 140.738281 143.375 152.089844 142.980469 161.546875 141.304688 C 170.128906 139.78125 176.84375 137.25 181.703125 133.953125 C 186.007812 131.03125 188.757812 127.566406 190.09375 123.742188 C 191.265625 120.382812 191.300781 116.863281 190.425781 113.308594 C 189.652344 110.167969 188.167969 107 186.125 103.867188 C 184.300781 101.074219 182.023438 98.304688 179.394531 95.59375 C 177.023438 93.148438 174.355469 90.742188 171.445312 88.394531 C 168.792969 86.253906 165.996094 84.207031 163.109375 82.261719 C 160.441406 80.464844 157.667969 78.734375 154.824219 77.082031 C 152.160156 75.535156 149.414062 74.042969 146.609375 72.605469 C 143.949219 71.246094 141.210938 69.925781 138.410156 68.648438 C 135.730469 67.429688 133.046875 66.273438 130.371094 65.179688 C 127.777344 64.125 125.164062 63.117188 122.546875 62.160156 C 119.984375 61.222656 117.386719 60.328125 114.769531 59.472656 C 112.179688 58.628906 109.542969 57.820312 106.867188 57.046875 C 104.191406 56.273438 101.527344 55.554688 98.886719 54.886719 C 96.21875 54.210938 93.542969 53.585938 90.875 53.011719 C 88.148438 52.425781 85.402344 51.886719 82.644531 51.398438 C 79.800781 50.894531 76.910156 50.441406 73.992188 50.042969 C 70.945312 49.628906 67.925781 49.289062 64.949219 49.019531 C 61.808594 48.738281 58.6875 48.539062 55.613281 48.429688 C 52.324219 48.3125 49.058594 48.296875 45.839844 48.394531 C 42.359375 48.5 38.902344 48.738281 35.519531 49.136719 Z M 35.519531 49.136719 "/></g><path style=" stroke:none;fill-rule:nonzero;fill:#ffffff;fill-opacity:1;" d="M 146.523438 81.195312 C 147.578125 82.4375 148.382812 83.652344 148.917969 84.820312 C 149.484375 86.066406 149.746094 87.261719 149.667969 88.382812 C 149.585938 89.578125 149.121094 90.691406 148.234375 91.691406 C 147.292969 92.757812 145.875 93.691406 143.957031 94.457031 C 141.917969 95.269531 139.386719 95.855469 136.398438 96.195312 C 133.253906 96.554688 129.640625 96.636719 125.621094 96.421875 C 121.449219 96.199219 116.914062 95.660156 112.109375 94.804688 C 107.207031 93.933594 102.121094 92.746094 96.980469 91.261719 C 91.84375 89.777344 86.910156 88.070312 82.300781 86.195312 C 77.777344 84.359375 73.652344 82.394531 70.007812 80.359375 C 66.492188 78.398438 63.476562 76.402344 61.007812 74.421875 C 58.660156 72.539062 56.832031 70.695312 55.539062 68.921875 C 54.324219 67.25 53.625 65.707031 53.394531 64.300781 C 53.179688 62.984375 53.378906 61.792969 53.949219 60.738281 C 54.480469 59.746094 55.339844 58.875 56.480469 58.125 C 57.558594 57.417969 58.886719 56.824219 60.441406 56.332031 C 61.90625 55.871094 63.535156 55.519531 65.292969 55.265625 C 66.957031 55.027344 68.746094 54.875 70.632812 54.808594 C 72.433594 54.746094 74.332031 54.757812 76.304688 54.839844 C 78.207031 54.917969 80.1875 55.066406 82.238281 55.277344 C 84.222656 55.484375 86.226562 55.746094 88.234375 56.054688 C 90.195312 56.359375 92.175781 56.714844 94.160156 57.117188 C 96.113281 57.511719 98.082031 57.953125 100.0625 58.4375 C 102.023438 58.921875 104.007812 59.453125 106.003906 60.027344 C 108 60.605469 109.960938 61.214844 111.878906 61.851562 C 113.8125 62.496094 115.71875 63.171875 117.578125 63.878906 C 119.472656 64.597656 121.335938 65.355469 123.15625 66.140625 C 125.019531 66.949219 126.855469 67.796875 128.644531 68.679688 C 130.492188 69.59375 132.246094 70.527344 133.898438 71.472656 C 135.613281 72.457031 137.226562 73.457031 138.714844 74.472656 C 140.273438 75.535156 141.707031 76.617188 142.988281 77.707031 C 144.339844 78.855469 145.527344 80.023438 146.523438 81.195312 Z M 52.136719 53.933594 C 49.96875 54.433594 48.03125 55.066406 46.367188 55.835938 C 44.570312 56.664062 43.089844 57.648438 41.980469 58.796875 C 40.777344 60.039062 40.007812 61.46875 39.753906 63.085938 C 39.472656 64.839844 39.796875 66.804688 40.8125 68.96875 C 41.910156 71.3125 43.777344 73.792969 46.429688 76.367188 C 49.265625 79.117188 52.945312 81.925781 57.4375 84.714844 C 62.164062 87.644531 67.675781 90.488281 73.859375 93.140625 C 80.214844 95.871094 87.109375 98.328125 94.339844 100.414062 C 101.570312 102.503906 108.714844 104.101562 115.546875 105.179688 C 122.191406 106.230469 128.371094 106.765625 133.933594 106.804688 C 139.21875 106.84375 143.832031 106.429688 147.695312 105.613281 C 151.308594 104.851562 154.210938 103.746094 156.394531 102.351562 C 158.40625 101.058594 159.726562 99.570312 160.425781 97.9375 C 161.070312 96.433594 161.183594 94.816406 160.832031 93.125 C 160.503906 91.558594 159.777344 89.933594 158.699219 88.277344 C 157.699219 86.742188 156.398438 85.171875 154.832031 83.59375 C 153.371094 82.121094 151.710938 80.675781 149.898438 79.269531 C 148.195312 77.949219 146.34375 76.652344 144.375 75.390625 C 142.507812 74.191406 140.523438 73.019531 138.445312 71.878906 C 136.453125 70.785156 134.363281 69.714844 132.1875 68.667969 C 130.085938 67.664062 127.953125 66.703125 125.796875 65.789062 C 123.699219 64.902344 121.566406 64.054688 119.410156 63.246094 C 117.292969 62.453125 115.132812 61.695312 112.949219 60.972656 C 110.78125 60.257812 108.570312 59.574219 106.324219 58.921875 C 104.078125 58.273438 101.839844 57.675781 99.625 57.125 C 97.394531 56.570312 95.164062 56.0625 92.949219 55.601562 C 90.695312 55.136719 88.4375 54.71875 86.1875 54.351562 C 83.878906 53.972656 81.5625 53.648438 79.246094 53.378906 C 76.847656 53.101562 74.507812 52.894531 72.242188 52.757812 C 69.875 52.617188 67.570312 52.550781 65.355469 52.566406 C 63.015625 52.585938 60.757812 52.695312 58.613281 52.90625 C 56.332031 53.128906 54.15625 53.46875 52.136719 53.933594 Z M 52.136719 53.933594 "/><path style=" stroke:none;fill-rule:nonzero;fill:#ffffff;fill-opacity:1;" d="M 129.910156 76.398438 C 130.246094 77.0625 130.40625 77.691406 130.394531 78.273438 C 130.382812 78.878906 130.179688 79.4375 129.78125 79.933594 C 129.367188 80.449219 128.746094 80.902344 127.910156 81.28125 C 127.046875 81.667969 125.957031 81.976562 124.640625 82.191406 C 123.277344 82.414062 121.722656 82.527344 120 82.527344 C 118.230469 82.53125 116.292969 82.414062 114.222656 82.183594 C 112.117188 81.949219 109.886719 81.59375 107.574219 81.121094 C 105.238281 80.644531 102.839844 80.054688 100.421875 79.355469 C 98.003906 78.65625 95.660156 77.878906 93.429688 77.035156 C 91.222656 76.203125 89.148438 75.3125 87.238281 74.390625 C 85.363281 73.484375 83.664062 72.546875 82.171875 71.601562 C 80.710938 70.683594 79.457031 69.757812 78.421875 68.84375 C 77.421875 67.960938 76.664062 67.117188 76.140625 66.328125 C 75.636719 65.5625 75.351562 64.851562 75.277344 64.195312 C 75.207031 63.558594 75.332031 62.980469 75.644531 62.460938 C 75.945312 61.960938 76.417969 61.515625 77.054688 61.132812 C 77.671875 60.761719 78.421875 60.457031 79.289062 60.214844 C 80.128906 59.980469 81.078125 59.804688 82.121094 59.691406 C 83.136719 59.578125 84.242188 59.519531 85.425781 59.511719 C 86.582031 59.507812 87.816406 59.550781 89.121094 59.648438 C 90.398438 59.742188 91.707031 59.878906 93.039062 60.058594 C 94.347656 60.238281 95.6875 60.457031 97.039062 60.710938 C 98.375 60.96875 99.734375 61.257812 101.105469 61.589844 C 102.46875 61.917969 103.847656 62.28125 105.238281 62.683594 C 106.625 63.082031 107.988281 63.511719 109.316406 63.960938 C 110.652344 64.414062 111.957031 64.890625 113.226562 65.386719 C 114.507812 65.890625 115.753906 66.417969 116.957031 66.96875 C 118.179688 67.523438 119.363281 68.105469 120.492188 68.707031 C 121.644531 69.324219 122.714844 69.941406 123.6875 70.5625 C 124.6875 71.199219 125.59375 71.839844 126.390625 72.476562 C 127.214844 73.132812 127.925781 73.785156 128.507812 74.429688 C 129.113281 75.09375 129.585938 75.753906 129.910156 76.398438 Z M 68.75 58.734375 C 67.703125 59.183594 66.863281 59.71875 66.238281 60.332031 C 65.582031 60.980469 65.167969 61.714844 65.015625 62.53125 C 64.859375 63.390625 64.992188 64.339844 65.441406 65.375 C 65.910156 66.460938 66.722656 67.632812 67.902344 68.878906 C 69.140625 70.1875 70.730469 71.523438 72.65625 72.871094 C 74.652344 74.269531 76.992188 75.664062 79.632812 77.023438 C 82.347656 78.421875 85.347656 79.765625 88.578125 81.027344 C 91.855469 82.308594 95.332031 83.480469 98.929688 84.519531 C 102.53125 85.5625 106.097656 86.417969 109.550781 87.085938 C 112.960938 87.742188 116.214844 88.203125 119.257812 88.46875 C 122.21875 88.726562 124.9375 88.792969 127.375 88.675781 C 129.722656 88.5625 131.78125 88.277344 133.523438 87.832031 C 135.1875 87.40625 136.5 86.847656 137.476562 86.179688 C 138.40625 85.542969 139.027344 84.8125 139.351562 84 C 139.660156 83.226562 139.699219 82.386719 139.488281 81.488281 C 139.289062 80.636719 138.859375 79.734375 138.214844 78.796875 C 137.601562 77.902344 136.808594 76.996094 135.863281 76.09375 C 134.953125 75.230469 133.902344 74.363281 132.730469 73.503906 C 131.597656 72.675781 130.347656 71.851562 128.996094 71.035156 C 127.683594 70.246094 126.269531 69.464844 124.765625 68.695312 C 123.300781 67.945312 121.78125 67.222656 120.226562 66.53125 C 118.703125 65.855469 117.132812 65.207031 115.53125 64.589844 C 113.953125 63.980469 112.332031 63.394531 110.679688 62.839844 C 109.039062 62.292969 107.355469 61.765625 105.644531 61.273438 C 103.933594 60.777344 102.234375 60.324219 100.550781 59.917969 C 98.859375 59.503906 97.175781 59.136719 95.515625 58.808594 C 93.828125 58.476562 92.15625 58.191406 90.507812 57.949219 C 88.824219 57.703125 87.15625 57.503906 85.515625 57.359375 C 83.832031 57.207031 82.21875 57.117188 80.6875 57.085938 C 79.109375 57.050781 77.613281 57.082031 76.214844 57.179688 C 74.761719 57.28125 73.410156 57.453125 72.183594 57.703125 C 70.902344 57.960938 69.746094 58.304688 68.75 58.734375 Z M 68.75 58.734375 "/><path style=" stroke:none;fill-rule:nonzero;fill:#ffffff;fill-opacity:1;" d="M 85.363281 63.53125 C 85.03125 63.824219 84.820312 64.152344 84.726562 64.519531 C 84.632812 64.890625 84.660156 65.300781 84.820312 65.738281 C 84.984375 66.191406 85.285156 66.671875 85.722656 67.179688 C 86.167969 67.703125 86.757812 68.25 87.488281 68.816406 C 88.238281 69.394531 89.109375 69.972656 90.09375 70.546875 C 91.089844 71.128906 92.199219 71.703125 93.398438 72.253906 C 94.613281 72.816406 95.917969 73.351562 97.292969 73.855469 C 98.671875 74.367188 100.117188 74.839844 101.601562 75.269531 C 103.085938 75.695312 104.5625 76.066406 106 76.371094 C 107.433594 76.675781 108.820312 76.917969 110.148438 77.09375 C 111.460938 77.265625 112.703125 77.371094 113.859375 77.410156 C 114.996094 77.449219 116.042969 77.425781 116.984375 77.335938 C 117.90625 77.246094 118.695312 77.097656 119.351562 76.894531 C 119.992188 76.695312 120.503906 76.449219 120.882812 76.15625 C 121.25 75.867188 121.496094 75.539062 121.613281 75.171875 C 121.730469 74.8125 121.726562 74.421875 121.601562 73.996094 C 121.480469 73.582031 121.25 73.152344 120.917969 72.710938 C 120.59375 72.277344 120.175781 71.835938 119.667969 71.386719 C 119.171875 70.945312 118.589844 70.5 117.929688 70.050781 C 117.28125 69.609375 116.558594 69.167969 115.765625 68.722656 C 114.984375 68.289062 114.15625 67.863281 113.289062 67.457031 C 112.433594 67.054688 111.535156 66.664062 110.609375 66.292969 C 109.691406 65.925781 108.742188 65.570312 107.765625 65.238281 C 106.792969 64.90625 105.792969 64.589844 104.773438 64.292969 C 103.75 64 102.738281 63.734375 101.738281 63.496094 C 100.734375 63.257812 99.738281 63.050781 98.765625 62.871094 C 97.785156 62.695312 96.820312 62.546875 95.882812 62.429688 C 94.933594 62.3125 94.003906 62.226562 93.113281 62.179688 C 92.203125 62.132812 91.355469 62.121094 90.574219 62.148438 C 89.777344 62.179688 89.046875 62.246094 88.390625 62.351562 C 87.722656 62.464844 87.132812 62.613281 86.625 62.808594 C 86.109375 63.003906 85.6875 63.246094 85.363281 63.53125 Z M 85.363281 63.53125 "/></g></svg>