<svg xmlns="http://www.w3.org/2000/svg" xmlns:xlink="http://www.w3.org/1999/xlink" width="256" zoomAndPan="magnify" viewBox="0 0 192 64.499998" height="86" preserveAspectRatio="xMidYMid meet" version="1.2"><defs><clipPath id="55ed6c0db0"><path d="M 32 0 L 160.480469 0 L 160.480469 64 L 32 64 Z M 32 0 "/></clipPath></defs><g id="4774bf3886"><g clip-rule="nonzero" clip-path="url(#55ed6c0db0)"><path style=" stroke:none;fill-rule:nonzero;fill:#ffffff;fill-opacity:1;" d="M 141.335938 25.398438 C 142.804688 26.703125 144.097656 28.023438 145.175781 29.339844 C 146.355469 30.78125 147.289062 32.222656 147.921875 33.644531 C 148.621094 35.203125 148.960938 36.742188 148.875 38.21875 C 148.777344 39.847656 148.160156 41.398438 146.929688 42.8125 C 145.566406 44.375 143.511719 45.703125 140.742188 46.726562 C 137.710938 47.851562 133.886719 48.589844 129.316406 48.875 C 124.417969 49.179688 118.800781 48.957031 112.628906 48.15625 C 106.214844 47.328125 99.4375 45.910156 92.558594 43.921875 C 85.683594 41.9375 79.195312 39.523438 73.328125 36.804688 C 67.679688 34.191406 62.8125 31.386719 58.828125 28.515625 C 55.117188 25.839844 52.277344 23.175781 50.308594 20.609375 C 48.515625 18.265625 47.484375 16.046875 47.164062 13.996094 C 46.871094 12.148438 47.175781 10.503906 47.964844 9.074219 C 48.675781 7.777344 49.785156 6.660156 51.207031 5.710938 C 52.503906 4.847656 54.058594 4.125 55.824219 3.535156 C 57.441406 2.996094 59.238281 2.566406 61.175781 2.246094 C 62.964844 1.945312 64.835938 1.746094 66.753906 1.628906 C 68.546875 1.519531 70.394531 1.480469 72.28125 1.511719 C 74.054688 1.539062 75.878906 1.625 77.730469 1.765625 C 79.496094 1.902344 81.300781 2.085938 83.136719 2.316406 C 84.898438 2.539062 86.652344 2.800781 88.390625 3.097656 C 90.078125 3.386719 91.769531 3.707031 93.449219 4.0625 C 95.09375 4.410156 96.75 4.792969 98.402344 5.207031 C 100.042969 5.621094 101.695312 6.066406 103.355469 6.542969 C 105.019531 7.023438 106.65625 7.527344 108.261719 8.054688 C 109.882812 8.585938 111.484375 9.144531 113.066406 9.730469 C 114.675781 10.324219 116.277344 10.953125 117.859375 11.609375 C 119.488281 12.285156 121.109375 12.996094 122.722656 13.75 C 124.398438 14.53125 126.023438 15.339844 127.585938 16.164062 C 129.226562 17.035156 130.816406 17.933594 132.335938 18.855469 C 133.945312 19.835938 135.488281 20.851562 136.945312 21.898438 C 138.507812 23.023438 139.984375 24.191406 141.335938 25.398438 Z M 55.59375 0.632812 C 53.097656 0.925781 50.71875 1.335938 48.496094 1.875 C 46.03125 2.476562 43.742188 3.234375 41.707031 4.171875 C 39.421875 5.21875 37.445312 6.488281 35.878906 7.996094 C 34.109375 9.703125 32.867188 11.714844 32.332031 14.046875 C 31.71875 16.699219 32.042969 19.652344 33.445312 22.855469 C 35.023438 26.472656 37.9375 30.316406 42.269531 34.253906 C 47.042969 38.59375 53.355469 42.886719 61.078125 46.886719 C 69.242188 51.121094 78.554688 54.8125 88.578125 57.707031 C 98.601562 60.601562 108.453125 62.445312 117.617188 63.21875 C 126.289062 63.949219 133.914062 63.683594 140.269531 62.558594 C 146.035156 61.535156 150.546875 59.835938 153.808594 57.621094 C 156.703125 55.65625 158.550781 53.328125 159.449219 50.757812 C 160.238281 48.5 160.261719 46.136719 159.671875 43.75 C 159.152344 41.640625 158.15625 39.507812 156.78125 37.40625 C 155.554688 35.527344 154.027344 33.667969 152.261719 31.84375 C 150.667969 30.203125 148.875 28.585938 146.917969 27.007812 C 145.136719 25.570312 143.257812 24.195312 141.320312 22.890625 C 139.523438 21.679688 137.660156 20.519531 135.75 19.410156 C 133.964844 18.371094 132.117188 17.367188 130.230469 16.402344 C 128.445312 15.488281 126.605469 14.601562 124.722656 13.742188 C 122.925781 12.921875 121.121094 12.144531 119.320312 11.414062 C 117.578125 10.703125 115.824219 10.023438 114.066406 9.382812 C 112.34375 8.753906 110.597656 8.152344 108.839844 7.578125 C 107.101562 7.011719 105.328125 6.464844 103.53125 5.945312 C 101.730469 5.429688 99.941406 4.945312 98.167969 4.496094 C 96.375 4.042969 94.578125 3.621094 92.785156 3.238281 C 90.953125 2.84375 89.109375 2.480469 87.257812 2.152344 C 85.34375 1.8125 83.402344 1.507812 81.441406 1.242188 C 79.394531 0.964844 77.367188 0.734375 75.367188 0.554688 C 73.257812 0.367188 71.160156 0.230469 69.09375 0.15625 C 66.886719 0.078125 64.6875 0.0664062 62.527344 0.132812 C 60.191406 0.203125 57.867188 0.367188 55.59375 0.632812 Z M 55.59375 0.632812 "/></g><path style=" stroke:none;fill-rule:nonzero;fill:#ffffff;fill-opacity:1;" d="M 130.175781 22.171875 C 130.882812 23.007812 131.425781 23.824219 131.785156 24.609375 C 132.164062 25.445312 132.339844 26.246094 132.289062 27 C 132.234375 27.804688 131.917969 28.554688 131.324219 29.226562 C 130.691406 29.941406 129.738281 30.570312 128.449219 31.082031 C 127.078125 31.628906 125.378906 32.023438 123.371094 32.253906 C 121.257812 32.492188 118.832031 32.546875 116.128906 32.402344 C 113.328125 32.253906 110.28125 31.890625 107.050781 31.316406 C 103.757812 30.730469 100.34375 29.933594 96.890625 28.933594 C 93.4375 27.9375 90.121094 26.792969 87.023438 25.53125 C 83.988281 24.296875 81.214844 22.976562 78.765625 21.609375 C 76.402344 20.292969 74.378906 18.953125 72.71875 17.621094 C 71.140625 16.359375 69.914062 15.117188 69.042969 13.925781 C 68.226562 12.804688 67.757812 11.765625 67.605469 10.824219 C 67.460938 9.9375 67.59375 9.136719 67.976562 8.425781 C 68.332031 7.761719 68.910156 7.175781 69.675781 6.671875 C 70.398438 6.199219 71.292969 5.796875 72.335938 5.46875 C 73.324219 5.160156 74.417969 4.921875 75.597656 4.75 C 76.714844 4.589844 77.917969 4.488281 79.183594 4.445312 C 80.394531 4.402344 81.671875 4.410156 82.996094 4.464844 C 84.273438 4.519531 85.605469 4.617188 86.980469 4.757812 C 88.316406 4.898438 89.664062 5.074219 91.011719 5.28125 C 92.328125 5.488281 93.660156 5.726562 94.992188 5.992188 C 96.304688 6.257812 97.628906 6.554688 98.957031 6.882812 C 100.277344 7.207031 101.609375 7.5625 102.949219 7.949219 C 104.292969 8.339844 105.609375 8.746094 106.898438 9.175781 C 108.195312 9.609375 109.476562 10.0625 110.726562 10.539062 C 112 11.023438 113.25 11.527344 114.472656 12.058594 C 115.726562 12.601562 116.960938 13.167969 118.160156 13.765625 C 119.402344 14.378906 120.582031 15.003906 121.691406 15.640625 C 122.84375 16.300781 123.925781 16.972656 124.929688 17.65625 C 125.976562 18.367188 126.9375 19.09375 127.800781 19.828125 C 128.707031 20.601562 129.507812 21.386719 130.175781 22.171875 Z M 66.757812 3.855469 C 65.300781 4.191406 64 4.617188 62.878906 5.132812 C 61.675781 5.6875 60.679688 6.351562 59.933594 7.125 C 59.125 7.957031 58.609375 8.917969 58.4375 10.003906 C 58.25 11.183594 58.464844 12.503906 59.148438 13.957031 C 59.886719 15.53125 61.144531 17.199219 62.921875 18.929688 C 64.828125 20.777344 67.300781 22.664062 70.320312 24.535156 C 73.496094 26.503906 77.199219 28.414062 81.355469 30.199219 C 85.625 32.03125 90.253906 33.683594 95.113281 35.085938 C 99.972656 36.488281 104.769531 37.5625 109.359375 38.289062 C 113.828125 38.992188 117.980469 39.351562 121.714844 39.378906 C 125.265625 39.40625 128.363281 39.128906 130.960938 38.578125 C 133.390625 38.066406 135.339844 37.324219 136.804688 36.386719 C 138.160156 35.519531 139.046875 34.519531 139.515625 33.421875 C 139.949219 32.410156 140.023438 31.324219 139.789062 30.1875 C 139.566406 29.136719 139.078125 28.042969 138.355469 26.929688 C 137.683594 25.898438 136.808594 24.84375 135.757812 23.785156 C 134.773438 22.796875 133.660156 21.824219 132.441406 20.878906 C 131.296875 19.992188 130.054688 19.121094 128.730469 18.273438 C 127.476562 17.46875 126.144531 16.679688 124.746094 15.914062 C 123.410156 15.179688 122.003906 14.457031 120.542969 13.757812 C 119.132812 13.078125 117.695312 12.433594 116.25 11.820312 C 114.839844 11.226562 113.40625 10.65625 111.957031 10.113281 C 110.535156 9.578125 109.085938 9.070312 107.617188 8.585938 C 106.160156 8.105469 104.675781 7.644531 103.164062 7.207031 C 101.65625 6.773438 100.152344 6.371094 98.664062 6 C 97.164062 5.628906 95.667969 5.285156 94.179688 4.976562 C 92.664062 4.664062 91.148438 4.382812 89.636719 4.136719 C 88.085938 3.882812 86.527344 3.664062 84.972656 3.484375 C 83.363281 3.296875 81.789062 3.15625 80.265625 3.066406 C 78.675781 2.96875 77.128906 2.925781 75.636719 2.9375 C 74.066406 2.949219 72.550781 3.023438 71.109375 3.164062 C 69.574219 3.316406 68.117188 3.542969 66.757812 3.855469 Z M 66.757812 3.855469 "/><path style=" stroke:none;fill-rule:nonzero;fill:#ffffff;fill-opacity:1;" d="M 119.011719 18.949219 C 119.238281 19.394531 119.347656 19.820312 119.339844 20.210938 C 119.328125 20.617188 119.191406 20.992188 118.925781 21.324219 C 118.648438 21.671875 118.230469 21.976562 117.667969 22.230469 C 117.089844 22.492188 116.355469 22.699219 115.472656 22.84375 C 114.558594 22.992188 113.511719 23.066406 112.351562 23.070312 C 111.164062 23.070312 109.863281 22.992188 108.472656 22.835938 C 107.058594 22.679688 105.558594 22.441406 104.003906 22.121094 C 102.4375 21.800781 100.824219 21.40625 99.199219 20.9375 C 97.574219 20.464844 96 19.941406 94.503906 19.378906 C 93.019531 18.816406 91.625 18.222656 90.34375 17.601562 C 89.082031 16.992188 87.941406 16.363281 86.9375 15.726562 C 85.957031 15.109375 85.113281 14.488281 84.417969 13.875 C 83.746094 13.28125 83.238281 12.714844 82.886719 12.183594 C 82.546875 11.671875 82.355469 11.191406 82.304688 10.75 C 82.257812 10.324219 82.34375 9.933594 82.550781 9.585938 C 82.753906 9.25 83.074219 8.953125 83.5 8.691406 C 83.914062 8.441406 84.417969 8.238281 85 8.074219 C 85.566406 7.917969 86.203125 7.800781 86.90625 7.722656 C 87.585938 7.648438 88.328125 7.609375 89.125 7.605469 C 89.902344 7.601562 90.730469 7.632812 91.605469 7.695312 C 92.464844 7.757812 93.34375 7.851562 94.238281 7.972656 C 95.121094 8.089844 96.019531 8.238281 96.925781 8.410156 C 97.824219 8.582031 98.738281 8.777344 99.660156 9 C 100.574219 9.21875 101.503906 9.464844 102.4375 9.734375 C 103.367188 10.003906 104.285156 10.289062 105.175781 10.59375 C 106.074219 10.898438 106.949219 11.21875 107.800781 11.550781 C 108.664062 11.890625 109.503906 12.246094 110.308594 12.613281 C 111.132812 12.988281 111.925781 13.378906 112.683594 13.78125 C 113.460938 14.195312 114.179688 14.613281 114.832031 15.03125 C 115.503906 15.457031 116.113281 15.886719 116.648438 16.3125 C 117.199219 16.753906 117.679688 17.191406 118.070312 17.625 C 118.476562 18.074219 118.796875 18.515625 119.011719 18.949219 Z M 77.921875 7.082031 C 77.21875 7.382812 76.652344 7.742188 76.230469 8.15625 C 75.792969 8.589844 75.511719 9.082031 75.414062 9.632812 C 75.304688 10.210938 75.394531 10.847656 75.695312 11.542969 C 76.011719 12.273438 76.558594 13.058594 77.351562 13.898438 C 78.183594 14.777344 79.25 15.675781 80.542969 16.582031 C 81.886719 17.519531 83.457031 18.457031 85.234375 19.371094 C 87.054688 20.308594 89.070312 21.214844 91.242188 22.058594 C 93.445312 22.917969 95.777344 23.707031 98.195312 24.40625 C 100.617188 25.105469 103.011719 25.683594 105.335938 26.128906 C 107.625 26.570312 109.8125 26.882812 111.855469 27.058594 C 113.84375 27.230469 115.671875 27.277344 117.308594 27.199219 C 118.886719 27.121094 120.269531 26.929688 121.441406 26.632812 C 122.558594 26.34375 123.441406 25.96875 124.097656 25.523438 C 124.722656 25.09375 125.136719 24.601562 125.355469 24.054688 C 125.5625 23.539062 125.589844 22.972656 125.449219 22.371094 C 125.3125 21.796875 125.027344 21.191406 124.59375 20.558594 C 124.179688 19.957031 123.648438 19.351562 123.011719 18.746094 C 122.402344 18.164062 121.695312 17.582031 120.90625 17.003906 C 120.148438 16.449219 119.308594 15.894531 118.398438 15.347656 C 117.515625 14.816406 116.566406 14.292969 115.554688 13.773438 C 114.570312 13.269531 113.550781 12.785156 112.507812 12.320312 C 111.484375 11.867188 110.429688 11.429688 109.351562 11.015625 C 108.289062 10.605469 107.199219 10.214844 106.089844 9.839844 C 104.988281 9.472656 103.859375 9.117188 102.710938 8.785156 C 101.558594 8.453125 100.417969 8.152344 99.289062 7.875 C 98.148438 7.597656 97.019531 7.351562 95.902344 7.132812 C 94.769531 6.910156 93.648438 6.714844 92.539062 6.554688 C 91.40625 6.386719 90.285156 6.253906 89.183594 6.15625 C 88.054688 6.054688 86.96875 5.996094 85.941406 5.972656 C 84.878906 5.949219 83.875 5.972656 82.933594 6.039062 C 81.960938 6.105469 81.050781 6.222656 80.226562 6.386719 C 79.367188 6.5625 78.589844 6.792969 77.921875 7.082031 Z M 77.921875 7.082031 "/><path style=" stroke:none;fill-rule:nonzero;fill:#ffffff;fill-opacity:1;" d="M 89.082031 10.304688 C 88.859375 10.5 88.71875 10.722656 88.65625 10.96875 C 88.589844 11.21875 88.609375 11.492188 88.71875 11.789062 C 88.828125 12.089844 89.03125 12.414062 89.324219 12.757812 C 89.621094 13.105469 90.019531 13.472656 90.511719 13.855469 C 91.011719 14.242188 91.597656 14.632812 92.257812 15.019531 C 92.929688 15.410156 93.675781 15.792969 94.480469 16.164062 C 95.296875 16.542969 96.175781 16.902344 97.097656 17.242188 C 98.023438 17.582031 98.996094 17.902344 99.992188 18.191406 C 100.992188 18.476562 101.980469 18.726562 102.949219 18.933594 C 103.910156 19.136719 104.84375 19.296875 105.734375 19.414062 C 106.617188 19.53125 107.449219 19.601562 108.226562 19.628906 C 108.992188 19.65625 109.695312 19.640625 110.328125 19.578125 C 110.949219 19.519531 111.480469 19.417969 111.917969 19.28125 C 112.347656 19.148438 112.691406 18.984375 112.945312 18.785156 C 113.195312 18.59375 113.359375 18.371094 113.4375 18.125 C 113.515625 17.886719 113.511719 17.621094 113.429688 17.335938 C 113.347656 17.058594 113.195312 16.769531 112.972656 16.472656 C 112.753906 16.183594 112.472656 15.882812 112.128906 15.582031 C 111.796875 15.285156 111.40625 14.984375 110.964844 14.683594 C 110.527344 14.386719 110.042969 14.089844 109.507812 13.792969 C 108.984375 13.5 108.425781 13.214844 107.84375 12.941406 C 107.269531 12.671875 106.667969 12.410156 106.046875 12.160156 C 105.429688 11.914062 104.789062 11.675781 104.132812 11.449219 C 103.480469 11.226562 102.808594 11.015625 102.121094 10.816406 C 101.4375 10.621094 100.753906 10.441406 100.082031 10.28125 C 99.410156 10.121094 98.742188 9.980469 98.085938 9.863281 C 97.429688 9.742188 96.78125 9.640625 96.148438 9.5625 C 95.511719 9.484375 94.890625 9.429688 94.289062 9.398438 C 93.679688 9.363281 93.109375 9.355469 92.582031 9.375 C 92.046875 9.394531 91.558594 9.441406 91.117188 9.511719 C 90.667969 9.585938 90.269531 9.6875 89.929688 9.816406 C 89.585938 9.949219 89.300781 10.113281 89.082031 10.304688 Z M 89.082031 10.304688 "/></g></svg>